<?xml version="1.0" encoding="utf-8"?><svg viewBox="0 0 44 44" xmlns="http://www.w3.org/2000/svg" xmlns:xlink="http://www.w3.org/1999/xlink"><style>:root>svg{display:none}:root>svg:target{display:block}</style><svg viewBox="0 0 17 10" id="arrow" xmlns="http://www.w3.org/2000/svg"><path d="M16 5H1m0 0l4-4M1 5l4 4" stroke="#122659" stroke-width="2" stroke-linecap="round" stroke-linejoin="round"/></svg><svg fill="none" viewBox="0 0 44 44" id="facebook" xmlns="http://www.w3.org/2000/svg"><g filter="url(#bfilter0_d)"><path d="M22 32c6.627 0 12-5.373 12-12S28.627 8 22 8s-12 5.373-12 12 5.373 12 12 12z" fill="#fff"/></g><path d="M23 20.9h1.429L25 18.5h-2v-1.2c0-.618 0-1.2 1.143-1.2H25v-2.016c-.186-.026-.89-.084-1.633-.084-1.551 0-2.653.994-2.653 2.82v1.68H19v2.4h1.714V26H23v-5.1z" fill="#122659"/><defs><filter id="bfilter0_d" x="0" y="0" width="44" height="44" filterUnits="userSpaceOnUse" color-interpolation-filters="sRGB"><feFlood flood-opacity="0" result="BackgroundImageFix"/><feColorMatrix in="SourceAlpha" values="0 0 0 0 0 0 0 0 0 0 0 0 0 0 0 0 0 0 127 0"/><feOffset dy="2"/><feGaussianBlur stdDeviation="5"/><feColorMatrix values="0 0 0 0 0.645556 0 0 0 0 0.658545 0 0 0 0 0.691667 0 0 0 0.1 0"/><feBlend in2="BackgroundImageFix" result="effect1_dropShadow"/><feBlend in="SourceGraphic" in2="effect1_dropShadow" result="shape"/></filter></defs></svg><svg fill="none" viewBox="0 0 44 44" id="instagram" xmlns="http://www.w3.org/2000/svg"><g filter="url(#cfilter0_d)"><path d="M22 32c6.627 0 12-5.373 12-12S28.627 8 22 8s-12 5.373-12 12 5.373 12 12 12z" fill="#fff"/></g><path d="M22 14c1.63 0 1.834.006 2.473.036.64.03 1.074.13 1.457.279.396.152.73.359 1.063.692.305.3.541.663.692 1.063.148.382.249.818.279 1.457.028.64.036.843.036 2.473s-.006 1.834-.036 2.473c-.03.64-.13 1.074-.279 1.457-.15.4-.386.764-.692 1.063-.3.305-.663.541-1.063.692-.382.148-.818.249-1.457.279-.64.028-.843.036-2.473.036s-1.834-.006-2.473-.036c-.64-.03-1.074-.13-1.457-.279-.4-.15-.764-.386-1.063-.692a2.942 2.942 0 01-.692-1.063c-.149-.382-.249-.818-.279-1.457C16.008 21.833 16 21.63 16 20s.006-1.834.036-2.473c.03-.64.13-1.074.279-1.457.15-.4.386-.764.692-1.063.3-.306.662-.542 1.063-.692.383-.149.817-.249 1.457-.279.64-.028.843-.036 2.473-.036zm0 3a3 3 0 100 6 3 3 0 000-6zm3.9-.15a.75.75 0 10-1.5 0 .75.75 0 001.5 0zM22 18.2a1.8 1.8 0 110 3.6 1.8 1.8 0 010-3.6z" fill="#122659"/><defs><filter id="cfilter0_d" x="0" y="0" width="44" height="44" filterUnits="userSpaceOnUse" color-interpolation-filters="sRGB"><feFlood flood-opacity="0" result="BackgroundImageFix"/><feColorMatrix in="SourceAlpha" values="0 0 0 0 0 0 0 0 0 0 0 0 0 0 0 0 0 0 127 0"/><feOffset dy="2"/><feGaussianBlur stdDeviation="5"/><feColorMatrix values="0 0 0 0 0.645556 0 0 0 0 0.658545 0 0 0 0 0.691667 0 0 0 0.1 0"/><feBlend in2="BackgroundImageFix" result="effect1_dropShadow"/><feBlend in="SourceGraphic" in2="effect1_dropShadow" result="shape"/></filter></defs></svg><svg fill="none" viewBox="0 0 24 14" id="menu" xmlns="http://www.w3.org/2000/svg"><path d="M0 1h24M0 7h24M0 13h24" stroke="#122659" stroke-width="2"/></svg><svg fill="none" viewBox="0 0 15 15" id="phone" xmlns="http://www.w3.org/2000/svg"><path d="M11.404 9.923c-.49-.484-1.102-.484-1.589 0-.371.368-.743.736-1.108 1.111-.1.103-.184.125-.306.056-.24-.13-.496-.237-.727-.38-1.077-.678-1.98-1.549-2.778-2.529-.397-.487-.75-1.008-.996-1.595-.05-.119-.04-.197.056-.293.372-.36.734-.728 1.1-1.096.508-.512.508-1.111-.004-1.626-.29-.294-.58-.58-.87-.874-.3-.3-.597-.603-.9-.9-.49-.477-1.102-.477-1.589.004C1.32 2.169.96 2.547.58 2.909c-.353.334-.53.743-.568 1.22-.06.778.131 1.511.4 2.226.549 1.48 1.385 2.794 2.4 3.998a14.854 14.854 0 004.92 3.85c.86.417 1.753.739 2.724.792.668.038 1.249-.131 1.714-.652.318-.356.677-.68 1.014-1.021.5-.506.503-1.117.006-1.617-.593-.596-1.189-1.19-1.785-1.782zM10.807 7.435l1.152-.197A5.147 5.147 0 0010.52 4.46a5.12 5.12 0 00-2.934-1.463l-.162 1.158a3.972 3.972 0 012.272 1.133c.587.586.971 1.33 1.111 2.147zM12.609 2.428A8.493 8.493 0 007.739 0l-.162 1.158a7.364 7.364 0 014.208 2.098 7.359 7.359 0 012.063 3.98L15 7.038a8.555 8.555 0 00-2.391-4.61z" fill="#122659"/></svg><svg fill="none" viewBox="0 0 44 44" id="vk" xmlns="http://www.w3.org/2000/svg"><g filter="url(#ffilter0_d)"><path d="M22 32c6.627 0 12-5.373 12-12S28.627 8 22 8s-12 5.373-12 12 5.373 12 12 12z" fill="#fff"/></g><path fill-rule="evenodd" clip-rule="evenodd" d="M21.85 23.966h.836s.253-.027.382-.167c.12-.128.115-.368.115-.368s-.016-1.125.505-1.29c.514-.163 1.174 1.087 1.873 1.568.529.363.93.284.93.284l1.87-.026s.978-.06.514-.831c-.038-.063-.27-.57-1.39-1.611-1.172-1.09-1.015-.914.397-2.8.86-1.147 1.204-1.848 1.096-2.148-.102-.286-.735-.21-.735-.21l-2.105.012s-.156-.021-.271.048c-.114.068-.186.227-.186.227s-.334.888-.778 1.644c-.937 1.594-1.312 1.678-1.465 1.58-.357-.232-.268-.928-.268-1.422 0-1.545.234-2.19-.455-2.356-.229-.056-.397-.092-.983-.098-.75-.008-1.386.002-1.747.179-.239.117-.424.379-.311.394.139.019.454.085.621.313.216.294.208.954.208.954s.124 1.819-.29 2.045c-.283.155-.672-.162-1.508-1.608-.428-.74-.751-1.56-.751-1.56s-.063-.153-.174-.235c-.135-.099-.323-.13-.323-.13l-2 .013s-.301.008-.411.139c-.098.116-.008.357-.008.357s1.566 3.67 3.34 5.52c1.625 1.695 3.472 1.584 3.472 1.584z" fill="#122659"/><defs><filter id="ffilter0_d" x="0" y="0" width="44" height="44" filterUnits="userSpaceOnUse" color-interpolation-filters="sRGB"><feFlood flood-opacity="0" result="BackgroundImageFix"/><feColorMatrix in="SourceAlpha" values="0 0 0 0 0 0 0 0 0 0 0 0 0 0 0 0 0 0 127 0"/><feOffset dy="2"/><feGaussianBlur stdDeviation="5"/><feColorMatrix values="0 0 0 0 0.645556 0 0 0 0 0.658545 0 0 0 0 0.691667 0 0 0 0.1 0"/><feBlend in2="BackgroundImageFix" result="effect1_dropShadow"/><feBlend in="SourceGraphic" in2="effect1_dropShadow" result="shape"/></filter></defs></svg></svg>