<svg viewBox="0 0 24 24" xmlns="http://www.w3.org/2000/svg">
<path d="M12 24C18.6274 24 24 18.6274 24 12C24 5.3726 18.6274 0 12 0C5.3726 0 0 5.3726 0 12C0 18.6274 5.3726 24 12 24Z" fill="white"/>
<path d="M12 6C13.6302 6 13.8336 6.006 14.4732 6.036C15.1122 6.066 15.5472 6.1662 15.93 6.315C16.326 6.4674 16.6596 6.6738 16.9932 7.0068C17.2983 7.3067 17.5344 7.6696 17.685 8.07C17.8332 8.4522 17.934 8.8878 17.964 9.5268C17.9922 10.1664 18 10.3698 18 12C18 13.6302 17.994 13.8336 17.964 14.4732C17.934 15.1122 17.8332 15.5472 17.685 15.93C17.5348 16.3307 17.2987 16.6936 16.9932 16.9932C16.6932 17.2982 16.3304 17.5343 15.93 17.685C15.5478 17.8332 15.1122 17.934 14.4732 17.964C13.8336 17.9922 13.6302 18 12 18C10.3698 18 10.1664 17.994 9.5268 17.964C8.8878 17.934 8.4528 17.8332 8.07 17.685C7.6694 17.5347 7.3065 17.2986 7.0068 16.9932C6.7016 16.6933 6.4656 16.3305 6.315 15.93C6.1662 15.5478 6.066 15.1122 6.036 14.4732C6.0078 13.8336 6 13.6302 6 12C6 10.3698 6.006 10.1664 6.036 9.5268C6.066 8.8872 6.1662 8.4528 6.315 8.07C6.4651 7.6693 6.7013 7.3064 7.0068 7.0068C7.3066 6.7015 7.6695 6.4654 8.07 6.315C8.4528 6.1662 8.8872 6.066 9.5268 6.036C10.1664 6.0078 10.3698 6 12 6ZM12 9C11.2044 9 10.4413 9.3161 9.8787 9.8787C9.3161 10.4413 9 11.2044 9 12C9 12.7956 9.3161 13.5587 9.8787 14.1213C10.4413 14.6839 11.2044 15 12 15C12.7956 15 13.5587 14.6839 14.1213 14.1213C14.6839 13.5587 15 12.7956 15 12C15 11.2044 14.6839 10.4413 14.1213 9.8787C13.5587 9.3161 12.7956 9 12 9ZM15.9 8.85C15.9 8.6511 15.821 8.4603 15.6803 8.3197C15.5397 8.179 15.3489 8.1 15.15 8.1C14.9511 8.1 14.7603 8.179 14.6197 8.3197C14.479 8.4603 14.4 8.6511 14.4 8.85C14.4 9.0489 14.479 9.2397 14.6197 9.3803C14.7603 9.521 14.9511 9.6 15.15 9.6C15.3489 9.6 15.5397 9.521 15.6803 9.3803C15.821 9.2397 15.9 9.0489 15.9 8.85ZM12 10.2C12.4774 10.2 12.9352 10.3896 13.2728 10.7272C13.6104 11.0648 13.8 11.5226 13.8 12C13.8 12.4774 13.6104 12.9352 13.2728 13.2728C12.9352 13.6104 12.4774 13.8 12 13.8C11.5226 13.8 11.0648 13.6104 10.7272 13.2728C10.3896 12.9352 10.2 12.4774 10.2 12C10.2 11.5226 10.3896 11.0648 10.7272 10.7272C11.0648 10.3896 11.5226 10.2 12 10.2Z" fill="#122659"/>
</svg>
