<svg viewBox="0 0 24 24" xmlns="http://www.w3.org/2000/svg">
<path d="M12 24C18.6274 24 24 18.6274 24 12C24 5.3726 18.6274 0 12 0C5.3726 0 0 5.3726 0 12C0 18.6274 5.3726 24 12 24Z" fill="white"/>
<path fill-rule="evenodd" clip-rule="evenodd" d="M11.8496 15.9665H12.6865C12.6865 15.9665 12.9393 15.9387 13.0683 15.7994C13.1871 15.6714 13.1833 15.4312 13.1833 15.4312C13.1833 15.4312 13.167 14.3064 13.6881 14.1408C14.2018 13.9777 14.8615 15.2279 15.5608 15.7085C16.0895 16.0724 16.4913 15.9926 16.4913 15.9926L18.3609 15.9665C18.3609 15.9665 19.339 15.9062 18.8752 15.1359C18.8372 15.0729 18.6051 14.5661 17.4851 13.5248C16.3128 12.4349 16.4698 12.6112 17.882 10.7259C18.742 9.57772 19.0858 8.87681 18.9784 8.57661C18.876 8.29061 18.2434 8.36621 18.2434 8.36621L16.1383 8.37931C16.1383 8.37931 15.9823 8.35801 15.8666 8.42731C15.7535 8.49531 15.6807 8.65372 15.6807 8.65372C15.6807 8.65372 15.3475 9.54212 14.9031 10.2977C13.9658 11.8921 13.591 11.9763 13.4378 11.8773C13.0814 11.6465 13.1704 10.9503 13.1704 10.4557C13.1704 8.91072 13.4043 8.26642 12.7148 8.09972C12.486 8.04432 12.3176 8.00772 11.7324 8.00182C10.9813 7.99402 10.3455 8.00411 9.98552 8.18081C9.74612 8.29821 9.56132 8.56002 9.67382 8.57502C9.81302 8.59372 10.1281 8.66012 10.2952 8.88802C10.5109 9.18192 10.5033 9.84221 10.5033 9.84221C10.5033 9.84221 10.6272 11.661 10.2138 11.887C9.93002 12.0419 9.54082 11.7255 8.70512 10.2791C8.27692 9.53812 7.95362 8.71912 7.95362 8.71912C7.95362 8.71912 7.89132 8.56611 7.78012 8.48421C7.64512 8.38501 7.45662 8.35341 7.45662 8.35341L5.45622 8.36662C5.45622 8.36662 5.15592 8.37501 5.04572 8.50571C4.94762 8.62211 5.03792 8.86271 5.03792 8.86271C5.03792 8.86271 6.60402 12.5327 8.37732 14.3822C10.0032 16.0779 11.8496 15.9665 11.8496 15.9665Z" fill="#122659"/>
</svg>
